<?xml version="1.0" encoding="UTF-8"?>
<svg xmlns="http://www.w3.org/2000/svg" viewBox="0 0 512 512" width="512" height="512"><g id="outline"><path d="M488,448h-8V424a8,8,0,0,0-8-8h-8V312a8,8,0,0,0-8-8H432V232a8,8,0,0,0-8-8H384V208a8,8,0,0,0-4.235-7.059L360,190.4V184A104.148,104.148,0,0,0,267,80.581,8.011,8.011,0,0,0,264,80V64h40a8,8,0,0,0,8-8V24a8,8,0,0,0-8-8H256a8,8,0,0,0-8,8V80.305A104.139,104.139,0,0,0,152,184v6.4l-19.765,10.541A8,8,0,0,0,128,208v16H88a8,8,0,0,0-8,8v72H56a8,8,0,0,0-8,8V416H40a8,8,0,0,0-8,8v24H24a8,8,0,0,0-8,8v32a8,8,0,0,0,8,8H488a8,8,0,0,0,8-8V456A8,8,0,0,0,488,448ZM264,32h32V48H264ZM448,320v96H432V360a24,24,0,0,0-48,0v56H368V360a23.992,23.992,0,0,0-32-22.624V320Zm-32,40v56H400V360a8,8,0,0,1,16,0Zm-64,0v56H336V360a8,8,0,0,1,16,0Zm16-56V280a8,8,0,0,1,16,0v24ZM343.973,181.852l-28.024-14.946a171.164,171.164,0,0,0-29.925-65.629A88.164,88.164,0,0,1,343.973,181.852ZM259.328,96.069c.466.018.932.034,1.4.059a155.191,155.191,0,0,1,35.943,60.495l-36.9-19.682a8.006,8.006,0,0,0-7.53,0L225.119,151.4A155.623,155.623,0,0,1,259.328,96.069Zm-22.983,2.146A171.561,171.561,0,0,0,205.2,162.027l-37.173,19.825A88.164,88.164,0,0,1,236.345,98.215ZM144,212.8l112-59.734L368,212.8V224H144ZM96,240H416v64H400V280a24,24,0,0,0-48,0v24h-8v-8a8,8,0,0,0-5.029-7.428l-80-32a8.008,8.008,0,0,0-5.942,0l-80,32A8,8,0,0,0,168,296v8h-8V280a24,24,0,0,0-48,0v24H96Zm160,96a32.036,32.036,0,0,0-32,32v48H192V320H320v96H288V368A32.036,32.036,0,0,0,256,336Zm16,32v48H240V368a16,16,0,0,1,32,0Zm-88-64v-2.583l72-28.8,72,28.8V304Zm-40-24v24H128V280a8,8,0,0,1,16,0ZM64,320H176v17.376A23.992,23.992,0,0,0,144,360v56H128V360a24,24,0,0,0-48,0v56H64Zm112,40v56H160V360a8,8,0,0,1,16,0Zm-64,0v56H96V360a8,8,0,0,1,16,0ZM48,432H464v16H48Zm432,48H32V464H480Z"/><path d="M256,168a24,24,0,1,0,24,24A24.027,24.027,0,0,0,256,168Zm0,32a8,8,0,1,1,8-8A8.009,8.009,0,0,1,256,200Z"/></g></svg>
