<svg height="512" viewBox="0 0 512 512" width="512" xmlns="http://www.w3.org/2000/svg"><g id="filled_outline" data-name="filled outline"><path d="m256 24h48v32h-48z" fill="#007af6"/><path d="m256 88a96 96 0 0 1 96 96v16a0 0 0 0 1 0 0h-192a0 0 0 0 1 0 0v-16a96 96 0 0 1 96-96z" fill="#932c27"/><path d="m56 312h400v112h-400z" fill="#ee9d0d"/><path d="m24 456h464v32h-464z" fill="#ee9d0d"/><path d="m24 480h464v8h-464z" fill="#c7830b"/><path d="m40 424h432v32h-432z" fill="#ee9d0d"/><path d="m40 448h432v8h-432z" fill="#c7830b"/><path d="m56 415h400v9h-400z" fill="#c7830b"/><path d="m376 232h-240v-24l120-64 120 64z" fill="#ee9d0d"/><path d="m88 232h336v80h-336z" fill="#ee9d0d"/><path d="m88 300.62h336v11.38h-336z" fill="#c7830b"/><path d="m184 312h144v112h-144z" fill="#ee9d0d"/><path d="m256 344a24 24 0 0 1 24 24v56a0 0 0 0 1 0 0h-48a0 0 0 0 1 0 0v-56a24 24 0 0 1 24-24z" fill="#6699ce"/><path d="m136 264a16 16 0 0 1 16 16v32a0 0 0 0 1 0 0h-32a0 0 0 0 1 0 0v-32a16 16 0 0 1 16-16z" fill="#6699ce"/><path d="m376 264a16 16 0 0 1 16 16v32a0 0 0 0 1 0 0h-32a0 0 0 0 1 0 0v-32a16 16 0 0 1 16-16z" fill="#6699ce"/><path d="m104 344a16 16 0 0 1 16 16v64a0 0 0 0 1 0 0h-32a0 0 0 0 1 0 0v-64a16 16 0 0 1 16-16z" fill="#6699ce"/><path d="m408 344a16 16 0 0 1 16 16v64a0 0 0 0 1 0 0h-32a0 0 0 0 1 0 0v-64a16 16 0 0 1 16-16z" fill="#6699ce"/><path d="m176 312v-16l80-32 80 32v16z" fill="#932c27"/><circle cx="256" cy="196" fill="#936108" r="16"/><path d="m176 312h8v112h-8z" fill="#c7830b"/><path d="m328 312h8v112h-8z" fill="#c7830b"/><path d="m168 344a16 16 0 0 1 16 16v64a0 0 0 0 1 0 0h-32a0 0 0 0 1 0 0v-64a16 16 0 0 1 16-16z" fill="#6699ce"/><path d="m344 344a16 16 0 0 1 16 16v64a0 0 0 0 1 0 0h-32a0 0 0 0 1 0 0v-64a16 16 0 0 1 16-16z" fill="#6699ce"/><g fill="#c7830b"><path d="m152 280v32h-32v-32a16 16 0 1 1 32 0z"/><path d="m392 280v32h-32v-32a16 16 0 1 1 32 0z"/><path d="m120 360v64h-32v-64a16 16 0 1 1 32 0z"/><path d="m424 360v64h-32v-64a16 16 0 1 1 32 0z"/><path d="m184 360v64h-32v-64a16 16 0 1 1 32 0z"/><path d="m360 360v64h-32v-64a16 16 0 1 1 32 0z"/></g><g fill="#936108"><path d="m144 280v32h-24v-32a16.012 16.012 0 0 1 12-15.5 15.987 15.987 0 0 1 12 15.5z"/><path d="m384 280v32h-24v-32a16.012 16.012 0 0 1 12-15.5 15.987 15.987 0 0 1 12 15.5z"/><path d="m112 360v64h-24v-64a16.012 16.012 0 0 1 12-15.5 15.987 15.987 0 0 1 12 15.5z"/><path d="m416 360v64h-24v-64a16.012 16.012 0 0 1 12-15.5 15.987 15.987 0 0 1 12 15.5z"/><path d="m176 360v64h-24v-64a16.012 16.012 0 0 1 12-15.5 15.987 15.987 0 0 1 12 15.5z"/><path d="m352 360v64h-24v-64a16.012 16.012 0 0 1 12-15.5 15.987 15.987 0 0 1 12 15.5z"/></g><circle cx="256" cy="192" fill="#c7830b" r="16"/><path d="m136 221.31h240v10.69h-240z" fill="#c7830b"/><path d="m184 415h144v9h-144z" fill="#d78e0c"/><path d="m280 368v56h-48v-56a24 24 0 0 1 20-23.66 22.974 22.974 0 0 1 4-.34 24 24 0 0 1 24 24z" fill="#c7830b"/><path d="m272 368v56h-40v-56a24 24 0 0 1 20-23.66 23.993 23.993 0 0 1 20 23.66z" fill="#936108"/><path d="m488 448h-8v-24a8 8 0 0 0 -8-8h-8v-104a8 8 0 0 0 -8-8h-24v-72a8 8 0 0 0 -8-8h-40v-16a8 8 0 0 0 -4.235-7.059l-19.765-10.541v-6.4a104.148 104.148 0 0 0 -93-103.419 8.011 8.011 0 0 0 -3-.581v-16h40a8 8 0 0 0 8-8v-32a8 8 0 0 0 -8-8h-48a8 8 0 0 0 -8 8v56.305a104.139 104.139 0 0 0 -96 103.695v6.4l-19.765 10.541a8 8 0 0 0 -4.235 7.059v16h-40a8 8 0 0 0 -8 8v72h-24a8 8 0 0 0 -8 8v104h-8a8 8 0 0 0 -8 8v24h-8a8 8 0 0 0 -8 8v32a8 8 0 0 0 8 8h464a8 8 0 0 0 8-8v-32a8 8 0 0 0 -8-8zm-224-416h32v16h-32zm184 288v96h-16v-56a24 24 0 0 0 -48 0v56h-16v-56a23.992 23.992 0 0 0 -32-22.624v-17.376zm-32 40v56h-16v-56a8 8 0 0 1 16 0zm-64 0v56h-16v-56a8 8 0 0 1 16 0zm16-56v-24a8 8 0 0 1 16 0v24zm-24.027-122.148-28.024-14.946a171.164 171.164 0 0 0 -29.925-65.629 88.164 88.164 0 0 1 57.949 80.575zm-84.645-85.783c.466.018.932.034 1.4.059a155.191 155.191 0 0 1 35.943 60.495l-36.9-19.682a8.006 8.006 0 0 0 -7.53 0l-27.122 14.459a155.623 155.623 0 0 1 34.209-55.331zm-22.983 2.146a171.561 171.561 0 0 0 -31.145 63.812l-37.173 19.825a88.164 88.164 0 0 1 68.318-83.637zm-92.345 114.585 112-59.734 112 59.734v11.2h-224zm-48 27.2h320v64h-16v-24a24 24 0 0 0 -48 0v24h-8v-8a8 8 0 0 0 -5.029-7.428l-80-32a8.008 8.008 0 0 0 -5.942 0l-80 32a8 8 0 0 0 -5.029 7.428v8h-8v-24a24 24 0 0 0 -48 0v24h-16zm160 96a32.036 32.036 0 0 0 -32 32v48h-32v-96h128v96h-32v-48a32.036 32.036 0 0 0 -32-32zm16 32v48h-32v-48a16 16 0 0 1 32 0zm-88-64v-2.583l72-28.8 72 28.8v2.583zm-40-24v24h-16v-24a8 8 0 0 1 16 0zm-80 40h112v17.376a23.992 23.992 0 0 0 -32 22.624v56h-16v-56a24 24 0 0 0 -48 0v56h-16zm112 40v56h-16v-56a8 8 0 0 1 16 0zm-64 0v56h-16v-56a8 8 0 0 1 16 0zm-64 72h416v16h-416zm432 48h-448v-16h448z"/><path d="m256 168a24 24 0 1 0 24 24 24.027 24.027 0 0 0 -24-24zm0 32a8 8 0 1 1 8-8 8.009 8.009 0 0 1 -8 8z"/></g></svg>