<?xml version="1.0" encoding="iso-8859-1"?>
<!-- Generator: Adobe Illustrator 19.0.0, SVG Export Plug-In . SVG Version: 6.00 Build 0)  -->
<svg version="1.1" id="Capa_1" xmlns="http://www.w3.org/2000/svg" xmlns:xlink="http://www.w3.org/1999/xlink" x="0px" y="0px"
	 viewBox="0 0 511.986 511.986" style="enable-background:new 0 0 511.986 511.986;" xml:space="preserve">
<g>
	<g>
		<g>
			<path d="M235.751,41.538l11.414-11.414v75.793c0,4.875,3.952,8.828,8.828,8.828c4.875,0,8.828-3.952,8.828-8.828V30.124
				l11.414,11.414c2.225,2.253,5.487,3.142,8.547,2.328c3.06-0.813,5.451-3.204,6.264-6.264c0.813-3.061-0.076-6.322-2.329-8.547
				L262.242,2.58c-3.456-3.44-9.042-3.44-12.498,0l-26.475,26.475c-3.394,3.456-3.369,9.001,0.056,12.426
				S232.296,44.931,235.751,41.538z"/>
			<path d="M412.303,138.641l11.414-11.414v75.793c0,4.875,3.952,8.828,8.828,8.828c4.875,0,8.828-3.952,8.828-8.828v-75.793
				l11.414,11.414c2.225,2.253,5.487,3.142,8.547,2.328c3.06-0.813,5.451-3.204,6.264-6.264c0.813-3.061-0.076-6.322-2.329-8.547
				l-26.475-26.475c-3.456-3.44-9.042-3.44-12.498,0l-26.475,26.475c-3.394,3.456-3.369,9.001,0.056,12.426
				C403.302,142.01,408.847,142.035,412.303,138.641z"/>
			<path d="M59.2,138.641l11.414-11.414v75.793c0,4.875,3.952,8.828,8.828,8.828c4.875,0,8.828-3.952,8.828-8.828v-75.793
				l11.414,11.414c3.453,3.41,9.012,3.392,12.443-0.039c3.432-3.432,3.449-8.99,0.039-12.443L85.69,99.684
				c-3.456-3.44-9.042-3.44-12.498,0l-26.475,26.475c-3.394,3.456-3.369,9.001,0.056,12.426
				C50.199,142.01,55.744,142.035,59.2,138.641z"/>
			<path d="M433.168,309.782c-1.258,0.234-2.431,0.655-3.644,0.991c-1.526,0.386-3.03,0.854-4.505,1.402
				c-0.942,0.373-1.817,0.858-2.724,1.292c-1.626,0.76-3.204,1.617-4.726,2.569c-0.723,0.463-1.399,0.981-2.091,1.484
				c-1.544,1.116-3.015,2.33-4.403,3.635c-0.586,0.556-1.15,1.13-1.704,1.718c-1.312,1.394-2.531,2.872-3.652,4.425
				c-0.489,0.676-0.983,1.345-1.434,2.05c-1.004,1.595-1.905,3.253-2.698,4.964c-0.374,0.793-0.788,1.561-1.115,2.377
				c-0.701,1.819-1.281,3.682-1.735,5.577c-0.204,0.805-0.492,1.577-0.651,2.399c-3.882,19.224,5.272,38.725,22.542,48.02
				c17.27,9.295,38.588,6.195,52.496-7.633s17.129-35.129,7.933-52.451C471.862,315.275,452.414,306.01,433.168,309.782z"/>
			<path d="M206.049,310.772c-1.213-0.335-2.386-0.757-3.644-0.991c-2.679-0.525-5.401-0.801-8.13-0.822h-0.15
				c-2.73,0.022-5.451,0.297-8.13,0.822c-1.258,0.234-2.431,0.655-3.644,0.991c-1.526,0.386-3.03,0.854-4.505,1.402
				c-0.942,0.373-1.817,0.858-2.724,1.292c-1.626,0.76-3.204,1.617-4.726,2.569c-0.723,0.463-1.399,0.981-2.091,1.484
				c-1.544,1.116-3.015,2.33-4.403,3.635c-0.586,0.556-1.15,1.13-1.704,1.718c-1.312,1.395-2.531,2.872-3.652,4.425
				c-0.489,0.676-0.983,1.345-1.434,2.05c-1.004,1.595-1.905,3.253-2.698,4.964c-0.374,0.793-0.788,1.561-1.115,2.377
				c-0.701,1.818-1.281,3.682-1.735,5.577c-0.204,0.806-0.492,1.577-0.651,2.399c-3.492,17.513,3.912,35.404,18.758,45.328
				s34.209,9.924,49.056,0s22.25-27.815,18.758-45.328c-0.159-0.822-0.447-1.593-0.651-2.399c-0.454-1.895-1.034-3.758-1.735-5.577
				c-0.327-0.816-0.742-1.585-1.115-2.377c-0.792-1.711-1.694-3.369-2.698-4.964c-0.45-0.704-0.945-1.373-1.434-2.05
				c-1.121-1.552-2.341-3.03-3.652-4.425c-0.554-0.587-1.118-1.162-1.704-1.718c-1.388-1.305-2.859-2.519-4.403-3.635
				c-0.691-0.503-1.368-1.021-2.091-1.484c-1.522-0.951-3.1-1.809-4.726-2.569c-0.907-0.434-1.781-0.919-2.724-1.292
				C209.078,311.627,207.574,311.159,206.049,310.772z"/>
			<path d="M268.865,315.486c1.086-1.41,2.231-2.768,3.433-4.074c0.818-0.893,1.631-1.776,2.501-2.62
				c1.525-1.474,3.123-2.869,4.79-4.18c0.825-0.649,1.657-1.275,2.516-1.882c2.041-1.47,4.169-2.813,6.374-4.024
				c0.481-0.258,0.988-0.467,1.477-0.712c2.235-1.128,4.536-2.119,6.892-2.967c0.287-0.103,0.544-0.26,0.834-0.359
				c-0.244-0.716-0.568-1.39-0.847-2.089c-0.515-1.366-1.097-2.706-1.746-4.014c-0.214-0.411-0.487-0.785-0.713-1.188
				c-0.903-1.642-1.91-3.225-3.015-4.739l-0.065-0.078c-4.048-5.369-9.252-9.759-15.226-12.843
				c-0.324-0.165-0.676-0.283-1.005-0.441c-1.624-0.801-3.296-1.501-5.006-2.097c-1.26-0.421-2.578-0.71-3.887-1.019
				c-0.926-0.224-1.829-0.517-2.774-0.681c-0.335-0.066-0.721-0.097-1.073-0.153c-2.052-0.315-4.125-0.483-6.201-0.502l-0.231-0.002
				c-2.087,0.018-4.17,0.186-6.233,0.504c-0.351,0.056-0.737,0.087-1.07,0.153c-0.946,0.164-1.848,0.456-2.774,0.681
				c-1.309,0.309-2.627,0.598-3.887,1.019c-1.71,0.596-3.382,1.296-5.006,2.097c-0.329,0.158-0.68,0.276-1.005,0.441
				c-5.975,3.085-11.179,7.474-15.226,12.843l-0.065,0.078c-1.105,1.514-2.112,3.097-3.015,4.739
				c-0.226,0.404-0.499,0.777-0.713,1.188c-0.649,1.308-1.232,2.648-1.746,4.014c-0.279,0.699-0.604,1.373-0.847,2.089
				c0.289,0.099,0.546,0.256,0.834,0.359c2.356,0.848,4.657,1.839,6.892,2.967c0.489,0.246,0.997,0.454,1.477,0.712
				c2.206,1.211,4.335,2.555,6.377,4.025c0.858,0.607,1.69,1.232,2.513,1.88c1.667,1.311,3.266,2.706,4.791,4.18
				c0.87,0.844,1.683,1.727,2.501,2.62c1.202,1.31,2.346,2.669,3.435,4.076c0.632,0.822,1.269,1.63,1.859,2.484
				c1.4,2.016,2.679,4.114,3.829,6.282c0.39,0.738,0.727,1.498,1.087,2.254c0.958,1.996,1.806,4.042,2.543,6.129
				c0.195,0.559,0.429,1.096,0.609,1.661c0.827,2.629,1.476,5.311,1.941,8.027c0.117,0.663,0.211,1.328,0.306,1.997
				c0.44,2.902,0.673,5.832,0.696,8.767c0.023-2.934,0.256-5.863,0.696-8.764c0.095-0.672,0.19-1.339,0.307-2.005
				c0.466-2.715,1.114-5.395,1.94-8.023c0.18-0.565,0.414-1.102,0.609-1.661c0.737-2.087,1.586-4.133,2.543-6.129
				c0.36-0.755,0.697-1.516,1.087-2.254c1.15-2.167,2.428-4.264,3.827-6.279C267.594,317.12,268.232,316.31,268.865,315.486z"/>
			<path d="M329.635,310.772c-1.213-0.335-2.386-0.757-3.644-0.991c-2.664-0.521-5.37-0.794-8.083-0.817l-0.261,0.002
				c-2.708,0.023-5.407,0.297-8.065,0.816c-1.258,0.234-2.431,0.655-3.644,0.991c-1.526,0.386-3.03,0.854-4.505,1.402
				c-0.942,0.373-1.817,0.858-2.724,1.292c-1.626,0.76-3.204,1.617-4.726,2.569c-0.723,0.463-1.399,0.981-2.091,1.484
				c-1.544,1.116-3.015,2.33-4.403,3.635c-0.586,0.556-1.15,1.13-1.704,1.718c-1.312,1.395-2.531,2.872-3.652,4.425
				c-0.489,0.676-0.983,1.345-1.434,2.05c-1.004,1.595-1.905,3.253-2.698,4.964c-0.374,0.793-0.788,1.561-1.115,2.377
				c-0.701,1.818-1.281,3.682-1.735,5.577c-0.204,0.806-0.492,1.577-0.651,2.399c-3.492,17.513,3.912,35.404,18.758,45.328
				s34.209,9.924,49.056,0s22.25-27.815,18.758-45.328c-0.159-0.822-0.447-1.593-0.651-2.399c-0.454-1.895-1.034-3.758-1.735-5.577
				c-0.327-0.816-0.742-1.585-1.115-2.377c-0.792-1.711-1.694-3.369-2.698-4.964c-0.45-0.704-0.945-1.373-1.434-2.05
				c-1.121-1.552-2.34-3.03-3.652-4.425c-0.554-0.587-1.118-1.162-1.704-1.718c-1.388-1.305-2.859-2.519-4.403-3.635
				c-0.691-0.503-1.368-1.021-2.091-1.484c-1.522-0.951-3.1-1.809-4.726-2.569c-0.907-0.434-1.781-0.919-2.724-1.292
				C332.665,311.627,331.161,311.159,329.635,310.772z"/>
			<path d="M392.452,315.486c1.086-1.41,2.231-2.768,3.433-4.074c0.818-0.893,1.631-1.776,2.501-2.62
				c1.525-1.474,3.123-2.869,4.79-4.18c0.825-0.649,1.657-1.275,2.516-1.882c2.041-1.47,4.169-2.813,6.374-4.024
				c0.481-0.258,0.988-0.467,1.477-0.712c2.235-1.128,4.536-2.119,6.892-2.967c0.305-0.109,0.578-0.276,0.885-0.381
				c-6.184-17.786-22.911-29.741-41.741-29.832c-3.434,0.042-6.852,0.494-10.179,1.346c-1.309,0.309-2.627,0.598-3.887,1.019
				c-1.71,0.596-3.382,1.296-5.006,2.097c-0.329,0.158-0.68,0.276-1.005,0.441c-5.975,3.084-11.179,7.474-15.226,12.843
				l-0.065,0.078c-1.105,1.514-2.112,3.097-3.015,4.739c-0.226,0.403-0.499,0.777-0.713,1.188c-0.649,1.308-1.232,2.648-1.746,4.014
				c-0.279,0.699-0.604,1.373-0.847,2.089c0.289,0.099,0.546,0.256,0.834,0.359c2.356,0.848,4.657,1.839,6.892,2.967
				c0.489,0.246,0.997,0.454,1.477,0.712c2.206,1.211,4.335,2.555,6.377,4.025c0.858,0.607,1.69,1.232,2.513,1.88
				c1.667,1.311,3.266,2.706,4.791,4.18c0.87,0.844,1.683,1.727,2.501,2.62c1.202,1.31,2.346,2.669,3.435,4.076
				c0.632,0.822,1.269,1.63,1.859,2.484c1.4,2.016,2.679,4.114,3.829,6.282c0.39,0.738,0.727,1.498,1.087,2.254
				c0.958,1.996,1.807,4.041,2.543,6.129c0.196,0.559,0.429,1.096,0.609,1.661c0.827,2.629,1.475,5.311,1.941,8.027
				c0.117,0.663,0.211,1.328,0.306,1.997c0.44,2.902,0.673,5.832,0.696,8.767c0.023-2.934,0.256-5.863,0.696-8.764
				c0.095-0.672,0.19-1.339,0.307-2.005c0.466-2.715,1.114-5.395,1.94-8.023c0.18-0.565,0.414-1.102,0.609-1.661
				c0.737-2.087,1.586-4.133,2.543-6.129c0.36-0.755,0.697-1.516,1.087-2.254c1.15-2.167,2.428-4.264,3.827-6.279
				C391.181,317.12,391.818,316.31,392.452,315.486z"/>
			<path d="M282.487,238.418l-0.074,0.089c-1.11,1.523-2.122,3.115-3.03,4.767c-0.219,0.391-0.483,0.752-0.691,1.15
				c-0.665,1.338-1.26,2.709-1.785,4.108c-0.266,0.671-0.579,1.317-0.813,2.004c0.369,0.126,0.708,0.307,1.073,0.44
				c0.862,0.319,1.698,0.686,2.543,1.042c10.934,4.529,20.327,12.119,27.049,21.859c0.252,0.363,0.49,0.735,0.734,1.103
				c0.829,1.258,1.651,2.514,2.388,3.834c0.911,1.614,1.749,3.273,2.515,4.975c0.336,0.755,0.612,1.539,0.918,2.31
				c0.551,1.371,1.061,2.759,1.514,4.177c0.115,0.364,0.28,0.705,0.388,1.072c0.509-0.021,1.03,0.008,1.548,0
				c0.343-0.005,0.676-0.051,1.021-0.051s0.678,0.046,1.021,0.052c0.518,0.008,1.039-0.021,1.548,0
				c0.108-0.367,0.274-0.707,0.388-1.072c0.453-1.419,0.963-2.806,1.514-4.177c0.306-0.772,0.583-1.555,0.918-2.31
				c0.765-1.7,1.602-3.357,2.513-4.971c0.738-1.322,1.561-2.581,2.391-3.841c0.244-0.367,0.482-0.739,0.733-1.101
				c6.724-9.741,16.12-17.333,27.056-21.862c0.842-0.355,1.676-0.721,2.535-1.038c0.382-0.139,0.738-0.329,1.123-0.461
				c-6.177-17.793-22.907-29.753-41.741-29.841c-3.426,0.043-6.835,0.492-10.155,1.34c-1.32,0.31-2.648,0.602-3.917,1.026
				c-1.693,0.591-3.348,1.284-4.956,2.076c-0.348,0.166-0.718,0.291-1.059,0.466C291.729,228.666,286.53,233.053,282.487,238.418z"
				/>
			<path d="M217.917,207.88c10.934,4.529,20.327,12.119,27.049,21.859c0.252,0.363,0.49,0.735,0.734,1.103
				c0.829,1.258,1.651,2.514,2.388,3.834c0.911,1.614,1.75,3.273,2.515,4.975c0.335,0.755,0.612,1.539,0.918,2.31
				c0.551,1.371,1.061,2.759,1.514,4.177c0.115,0.364,0.28,0.705,0.388,1.072c0.845-0.034,1.698-0.052,2.569-0.052
				c0.871,0,1.724,0.018,2.569,0.052c0.108-0.367,0.274-0.707,0.388-1.072c0.453-1.419,0.963-2.806,1.514-4.177
				c0.306-0.771,0.583-1.555,0.918-2.31c0.765-1.7,1.602-3.357,2.513-4.971c0.738-1.322,1.561-2.581,2.391-3.841
				c0.244-0.367,0.482-0.739,0.733-1.101c6.724-9.741,16.12-17.333,27.056-21.862c0.842-0.355,1.676-0.721,2.535-1.038
				c0.382-0.139,0.738-0.329,1.123-0.461c-6.103-17.848-22.879-29.84-41.741-29.84s-35.638,11.992-41.741,29.84
				c0.385,0.131,0.74,0.321,1.122,0.46C216.236,207.157,217.072,207.524,217.917,207.88z"/>
			<path d="M156.124,252.018c10.934,4.529,20.327,12.119,27.049,21.859c0.252,0.363,0.49,0.735,0.734,1.103
				c0.829,1.258,1.651,2.514,2.388,3.834c0.911,1.614,1.75,3.273,2.515,4.975c0.335,0.755,0.612,1.539,0.918,2.31
				c0.551,1.371,1.061,2.759,1.514,4.177c0.115,0.364,0.28,0.705,0.388,1.072c0.845-0.034,1.698-0.052,2.569-0.052
				s1.724,0.018,2.569,0.052c0.108-0.367,0.274-0.707,0.388-1.072c0.453-1.419,0.963-2.806,1.514-4.177
				c0.306-0.772,0.583-1.555,0.918-2.31c0.765-1.7,1.602-3.357,2.513-4.971c0.738-1.322,1.561-2.581,2.391-3.841
				c0.244-0.367,0.482-0.739,0.733-1.101c6.724-9.741,16.12-17.333,27.056-21.862c0.842-0.355,1.676-0.721,2.535-1.038
				c0.366-0.133,0.705-0.315,1.074-0.441c-0.234-0.687-0.547-1.333-0.813-2.004c-0.525-1.399-1.12-2.77-1.785-4.108
				c-0.207-0.399-0.472-0.759-0.691-1.15c-0.907-1.652-1.919-3.244-3.03-4.767l-0.074-0.089c-4.043-5.365-9.242-9.752-15.212-12.835
				c-0.342-0.175-0.712-0.3-1.059-0.466c-1.608-0.792-3.264-1.485-4.956-2.076c-1.269-0.424-2.597-0.717-3.917-1.026
				c-3.32-0.848-6.729-1.298-10.155-1.34c-18.834,0.088-35.564,12.048-41.741,29.841c0.385,0.131,0.74,0.321,1.122,0.46
				C154.443,251.295,155.279,251.662,156.124,252.018z"/>
			<path d="M145.279,315.486c1.086-1.41,2.231-2.768,3.433-4.074c0.818-0.893,1.631-1.776,2.501-2.62
				c1.525-1.474,3.123-2.869,4.79-4.18c0.825-0.649,1.657-1.275,2.516-1.882c2.041-1.47,4.169-2.813,6.374-4.024
				c0.481-0.258,0.988-0.467,1.477-0.712c2.235-1.128,4.536-2.119,6.892-2.967c0.287-0.103,0.544-0.26,0.834-0.359
				c-0.247-0.726-0.576-1.411-0.86-2.12c-0.542-1.341-1.057-2.697-1.724-3.968c-0.232-0.447-0.527-0.852-0.775-1.29
				c-0.884-1.602-1.867-3.148-2.943-4.628c-0.056-0.075-0.123-0.141-0.179-0.216c-4.027-5.312-9.19-9.658-15.111-12.721
				c-0.37-0.189-0.769-0.324-1.144-0.503c-1.583-0.777-3.21-1.459-4.874-2.042c-1.281-0.428-2.621-0.724-3.954-1.036
				c-3.31-0.842-6.709-1.289-10.124-1.331c-18.832,0.086-35.562,12.042-41.741,29.832c0.308,0.105,0.58,0.272,0.885,0.381
				c2.356,0.848,4.657,1.839,6.892,2.967c0.489,0.246,0.997,0.454,1.477,0.712c2.206,1.211,4.335,2.555,6.377,4.025
				c0.858,0.607,1.69,1.232,2.513,1.88c1.667,1.311,3.266,2.706,4.791,4.18c0.87,0.844,1.683,1.727,2.501,2.62
				c1.201,1.31,2.346,2.669,3.435,4.076c0.632,0.822,1.269,1.63,1.859,2.484c1.4,2.016,2.679,4.114,3.829,6.282
				c0.39,0.738,0.727,1.498,1.087,2.254c0.958,1.996,1.806,4.042,2.543,6.129c0.195,0.559,0.429,1.096,0.609,1.661
				c0.827,2.629,1.476,5.311,1.941,8.027c0.117,0.663,0.211,1.328,0.306,1.997c0.44,2.902,0.673,5.832,0.696,8.767
				c0.023-2.934,0.256-5.863,0.696-8.764c0.095-0.672,0.19-1.339,0.307-2.005c0.466-2.715,1.114-5.395,1.94-8.023
				c0.18-0.565,0.414-1.102,0.609-1.661c0.737-2.087,1.586-4.133,2.543-6.129c0.36-0.755,0.697-1.516,1.087-2.254
				c1.15-2.167,2.428-4.264,3.827-6.279C144.008,317.12,144.646,316.31,145.279,315.486z"/>
			<path d="M70.614,397.228c13.199,0.056,25.724-5.823,34.115-16.012c8.391-10.189,11.758-23.61,9.171-36.553
				c-0.159-0.822-0.447-1.593-0.651-2.399c-0.454-1.895-1.034-3.758-1.735-5.577c-0.327-0.816-0.742-1.585-1.115-2.377
				c-0.792-1.711-1.693-3.369-2.698-4.964c-0.45-0.704-0.945-1.373-1.434-2.05c-1.121-1.552-2.34-3.03-3.652-4.425
				c-0.554-0.587-1.118-1.162-1.704-1.718c-1.388-1.305-2.859-2.519-4.403-3.635c-0.691-0.503-1.368-1.021-2.091-1.484
				c-1.522-0.951-3.1-1.809-4.726-2.569c-0.907-0.434-1.781-0.919-2.724-1.292c-1.476-0.548-2.98-1.016-4.505-1.402
				c-1.213-0.336-2.386-0.757-3.644-0.991c-16.459-3.127-33.268,3.34-43.387,16.691c-10.119,13.351-11.802,31.283-4.343,46.284
				C38.548,387.758,53.861,397.238,70.614,397.228z"/>
			<path d="M70.614,414.883c-29.239,0.032-52.934,23.727-52.966,52.966v44.138h105.931v-44.138
				C123.547,438.61,99.853,414.915,70.614,414.883z"/>
			<path d="M194.2,414.883c-29.239,0.032-52.934,23.727-52.966,52.966v44.138h105.931v-44.138
				C247.134,438.61,223.439,414.915,194.2,414.883z"/>
			<path d="M317.786,414.883c-29.239,0.032-52.934,23.727-52.966,52.966v44.138h105.931v-44.138
				C370.72,438.61,347.025,414.915,317.786,414.883z"/>
			<path d="M441.372,414.883c-29.239,0.032-52.934,23.727-52.966,52.966v44.138h105.931v-44.138
				C494.306,438.61,470.611,414.915,441.372,414.883z"/>
		</g>
	</g>
</g>
<g>
</g>
<g>
</g>
<g>
</g>
<g>
</g>
<g>
</g>
<g>
</g>
<g>
</g>
<g>
</g>
<g>
</g>
<g>
</g>
<g>
</g>
<g>
</g>
<g>
</g>
<g>
</g>
<g>
</g>
</svg>
